<?xml version="1.0" encoding="utf-8"?>
<!-- Generator: Adobe Illustrator 23.0.6, SVG Export Plug-In . SVG Version: 6.00 Build 0)  -->
<svg version="1.1" xmlns="http://www.w3.org/2000/svg" xmlns:xlink="http://www.w3.org/1999/xlink" x="0px" y="0px"
	 viewBox="0 0 796.2 475.6" style="enable-background:new 0 0 796.2 475.6;" xml:space="preserve">
<style type="text/css">
	.st0{fill:none;stroke:#9B9B9B;stroke-width:2;stroke-miterlimit:10;}
</style>
<g id="Mac">
	<path class="st0" d="M686.2,385.5c0,3.4-249.6,56.4-249.6,56.4s-12.1,2.3-26.7,0S50,378.7,50,378.7s-13.7-4.2-14.9-7.2
		c-1.3-3-0.9-16.5-0.9-16.5l372.5,62.7c0,0,19,3.2,35.9-0.1s243.7-50.4,243.7-50.4S686.2,380.1,686.2,385.5z"/>
	<path class="st0" d="M34.2,355c0,0,242.7-32.9,249-33.7c5.7-0.8,17.5-3.8,46.9-0.1c33.2,4.1,356.1,46,356.1,46"/>
	<path class="st0" d="M686.2,382.6c0,0,11.2-2.9,14.2-15.5c3-12.7,68.1-319.2,68.9-323.7c0.8-4.5,1.1-16.7-13-17.8
		c-14.1-1.1-358.1,10-362.7,10.2c-4.6,0.2-15.4,2.6-18.5,16c-3.1,13.3-65.5,268.5-65.5,268.5"/>
	<polyline class="st0" points="148.4,374.2 247.4,358.9 373.8,377.5 272.4,395.1 	"/>
	<polygon class="st0" points="182.2,344 513.1,392.1 630.8,369.3 304.2,325 	"/>
	<line class="st0" x1="546.6" y1="406.6" x2="574.3" y2="400.7"/>
	<polygon class="st0" points="645,378.7 645,393.1 633.2,395.8 632.8,381.1 	"/>
	<polygon class="st0" points="649.3,374.8 649.3,395.8 663.7,392.1 663.3,371.9 	"/>
	<polygon class="st0" points="668.9,376.6 679.6,374 679.6,382.6 668.9,385.2 	"/>
	<polygon class="st0" points="581.5,394.7 595.2,392.1 595.2,399.9 581.5,402.9 	"/>
	<polygon class="st0" points="601.7,390.8 614.3,388.2 614.3,396.1 601.7,398.9 	"/>
	<path class="st0" d="M620.2,386.8l7.9-1.3v6.7c0,0,0.6,1.9-3.3,2.8c-3.8,0.9-4.6-1.4-4.6-1.4V386.8z"/>
	<line class="st0" x1="471.8" y1="328.6" x2="506.4" y2="333"/>
</g>
<g id="Mac_-_Screen">
	<polygon class="st0" points="742.4,51.9 680.3,342.4 332.7,300.7 390.6,56.2 	"/>
</g>
</svg>
