<?xml version="1.0" encoding="utf-8"?>
<!-- Generator: Adobe Illustrator 23.0.6, SVG Export Plug-In . SVG Version: 6.00 Build 0)  -->
<svg version="1.1" id="Layer_1" xmlns="http://www.w3.org/2000/svg" xmlns:xlink="http://www.w3.org/1999/xlink" x="0px" y="0px"
	 viewBox="0 0 180 180" style="enable-background:new 0 0 180 180;" xml:space="preserve">
<style type="text/css">
	.st0{fill:#333333;}
	.st1{fill:#0088C8;}
	.st2{fill:#005B8A;}
	.st3{fill:#8D8D8D;}
</style>
<path class="st0" d="M89.9,20.2c-38.7,0-70,31.3-70,70s31.3,70,70,70c38.7,0,70-31.3,70-70S128.6,20.2,89.9,20.2z M89.9,152.7
	c-34.5,0-62.5-28-62.5-62.5s28-62.5,62.5-62.5c34.5,0,62.5,28,62.5,62.5S124.5,152.7,89.9,152.7z"/>
<polygon id="Pointer_2_" class="st1" points="113.8,47.5 37.5,97.6 36.6,99.2 79.6,109.2 108,140.7 109.4,139.1 "/>
<polygon id="Pointer_1_" class="st2" points="115.3,45.9 37.5,97.6 82.5,102.6 109.4,139.1 "/>
<path class="st3" d="M89.9,27.7c-34.5,0-62.5,28-62.5,62.5s28,62.5,62.5,62.5c34.5,0,62.5-28,62.5-62.5S124.5,27.7,89.9,27.7z
	 M89.9,146c-30.8,0-55.8-25-55.8-55.8s25-55.8,55.8-55.8c30.8,0,55.8,25,55.8,55.8S120.8,146,89.9,146z"/>
</svg>
